<?xml version="1.0" encoding="iso-8859-1"?>
<!-- Generator: Adobe Illustrator 24.0.3, SVG Export Plug-In . SVG Version: 6.00 Build 0)  -->
<svg version="1.1" id="Layer_1" xmlns="http://www.w3.org/2000/svg" xmlns:xlink="http://www.w3.org/1999/xlink" x="0px" y="0px"
	 viewBox="0 0 50 50" style="enable-background:new 0 0 50 50;" xml:space="preserve">
<path d="M28.82,21c0,0.65-0.08,1.82-0.9,2.67c-0.58,0.59-1.55,1.03-2.46,1.03c-3.09,0-4.51-4.08-4.51-6.54c0-0.95,0.19-1.94,0.8-2.7
	c0.58-0.75,1.59-1.22,2.52-1.22C27.27,14.24,28.82,18.35,28.82,21z"/>
<path d="M26.88,30.65c2.74,1.98,3.92,2.97,3.92,4.84c0,2.27-1.83,3.97-5.3,3.97c-3.86,0-6.34-1.87-6.34-4.48s2.3-3.48,3.1-3.78
	c1.51-0.52,3.46-0.59,3.78-0.59C26.41,30.61,26.59,30.61,26.88,30.65z"/>
<path d="M25,3C12.85,3,3,12.85,3,25c0,12.15,9.85,22,22,22s22-9.85,22-22C47,12.85,37.15,3,25,3z M37,12v5.28
	c0.6,0.34,1,0.98,1,1.72v6c0,1.1-0.9,2-2,2s-2-0.9-2-2v-6c0-0.74,0.4-1.38,1-1.72v-3.71l-3.59,3.08c0.35,0.7,0.59,1.55,0.59,2.59
	c0,2.72-1.52,4.07-3.03,5.27c-0.47,0.48-1.02,1-1.02,1.81c0,0.8,0.55,1.25,0.95,1.57l1.29,1.03c1.59,1.36,3.03,2.61,3.03,5.14
	c0,3.45-3.29,6.94-9.49,6.94c-5.23,0-7.75-2.53-7.75-5.25c0-1.32,0.65-3.19,2.78-4.48c2.23-1.39,5.26-1.58,6.89-1.69
	c-0.51-0.66-1.09-1.35-1.09-2.5c0-0.61,0.19-0.98,0.37-1.43c-0.4,0.04-0.8,0.08-1.16,0.08c-3.8,0-5.97-2.88-5.99-5.73H11l10-9h17
	l-1.02,0.88C36.98,11.92,37,11.96,37,12z"/>
</svg>